<?xml version="1.0" encoding="utf-8" ?><svg xmlns="http://www.w3.org/2000/svg" xmlns:xlink="http://www.w3.org/1999/xlink" width="1024" height="1024" viewBox="0 0 1024 1024"><path fill="#00008B" d="M0 0L104.238 0L123.213 0L1024 0L1024 822.394L1024 838.2L1024 1024L772.794 1024L755.42 1024L0 1024L0 106.696L0 58.6592L0 0Z"/><path fill="#FFFFFE" d="M123.213 0L1024 0L1024 822.394C1013.63 802.031 1007.55 802.518 990.364 788.585C982.711 782.381 974.208 771.525 966.886 764.413C962.345 760.002 958.486 754.326 953.403 750.299C951.457 750.286 949.248 750.435 947.281 750.519C934.298 738.435 920.171 720.299 909.303 706.178C905.5 700.612 900.016 694.993 896.519 689.364C880.196 663.082 862.994 637.951 840.814 616.033C824.231 599.777 805.187 586.238 784.385 575.916C775.09 571.353 765.416 568.442 756.103 564.227C754.479 563.492 749.677 558.891 748.061 557.403C752.117 551.487 755.099 547.244 755.796 539.75C756.235 534.573 755.361 529.368 753.254 524.619C744.394 504.53 710.407 476.555 695.329 458.285C705.188 453.767 707.936 451.417 712.569 441.778C723.197 436.133 724.304 433.2 727.074 421.717C731.696 418.844 735.357 416.315 737.796 411.281C745.899 394.558 738.441 386.417 727.457 375.585C712.489 360.826 697.003 349.521 680.248 337.038C675.698 333.578 671.789 327.817 667.518 324.265C649.473 309.257 638.547 289.232 626.758 269.148C601.651 226.372 576.175 183.233 530.508 159.784C530.624 148.115 527.886 142.2 517.344 136.444C489.224 121.089 457.662 112.937 428.21 100.696C409.304 92.5296 392.489 80.4758 372.44 74.8236C363.62 72.3372 355.559 70.6596 346.305 69.8627C309.822 66.7209 275.548 83.7002 241.239 92.958C232.844 95.2231 222.501 92.5625 214.005 92.2079C207 91.9156 201.419 92.8458 194.688 94.4593C192.351 58.9486 174.651 15.1813 138.071 3.99631C133.08 2.47003 128.24 1.32114 123.213 0Z"/><path fill="#FFFFFE" d="M0 106.696C2.11383 114.485 3.26045 118.511 7.79273 125.208L7.69293 125.887C6.00713 136.878 -0.000894429 147.227 1.96336 158.7C3.88841 169.944 9.32398 174.607 20.3704 176.226C23.939 190.796 24.8224 193.745 38.4763 200.712C42.8737 209.037 46.1199 216.591 56.1942 219.566C70.5078 223.793 87.5576 213.916 99.8418 207.01C93.5153 224.967 86.987 238.432 77.0339 254.76C74.919 258.23 64.5109 275.468 63.9618 278.216C58.3194 306.455 61.3922 339.773 70.0634 367.064C74.9568 382.465 80.5392 389.89 82.225 405.322C83.7845 422.732 84.5661 440.372 85.5968 457.801C85.9989 464.602 85.5777 483.053 87.3652 488.093C91.9942 492.579 117.958 494.331 126.415 496.16C128.268 535.055 147.392 579.245 166.332 612.81C172.504 623.747 180.375 633.789 185.276 645.389C193.289 662.373 193.225 694.236 206.444 707.235C216.637 717.258 249.275 721.912 263.559 721.981C275.143 721.667 279.287 711.542 285.273 704.216C291.627 696.439 301.393 690.682 300.229 679.002C298.826 664.932 286.03 666.282 277.147 662.311C274.888 651.95 271.74 642.398 266.803 632.96C262.142 624.049 254.051 618.21 248.293 610.373C246.957 596.8 247.6 582.388 246.678 568.746C245.16 546.285 242.158 525.22 234.619 503.923C231.292 494.526 227.648 486.219 224.101 477.072C256.305 459.117 248.365 461.374 238.049 429.012C242.754 432.449 248.192 438.146 252.236 442.504C269.141 460.761 283.376 481.32 294.517 503.569C299.685 513.68 303.993 524.334 309.472 534.581C314.688 544.336 324.064 548.216 326.614 552.971C334.507 567.69 340.893 584.991 348.422 599.984C370.665 643.689 395.148 686.217 421.773 727.4C427.716 736.653 437.642 753.261 445.794 760.16C453.114 766.355 471.045 766.791 480.355 766.547C492.374 781.506 502.764 795.854 521.191 803.371C526.663 805.603 536.291 808.481 540.946 811.343C557.077 821.26 574.144 832.584 591.458 840.302C647.02 865.07 706.194 879.94 763.272 900.702C765.859 914.532 769.502 931.098 771.396 944.748C759.596 956.533 746.272 969.576 738.887 984.648C730.751 1001.25 740.717 1016.22 755.42 1024L0 1024L0 106.696Z"/><path fill="#FFFFFE" d="M588.418 613.499C596.241 619.533 602.654 628.377 612.653 631.6C622.115 634.649 628.429 630.984 636.477 626.93C646.767 636.295 670.911 647.561 684.077 653.088C688.429 654.915 700.294 659.451 703.693 661.867C713.884 669.739 722.438 680.562 731.25 690.041C771.263 733.081 833.517 743.023 868.738 791.151C878.949 805.104 885.776 821.349 897.262 834.069C900.924 838.125 906.924 841.981 911.507 845.123C916.49 861.773 920.282 880.047 937.313 888.107C945.367 891.919 954.842 893.714 963.546 890.95C967.762 889.611 972.327 885.884 976.214 883.702C990.351 874.955 1004.62 865.243 1015.57 852.595C1018.56 849.145 1021.95 842.339 1024 838.2L1024 1024L772.794 1024C778.258 1021.58 784.283 1019.78 789.735 1017.24C813.899 1005.94 837.331 994.744 855.101 974.051C857.306 971.483 858.931 969.132 860.478 966.125C862.721 961.766 863.384 956.085 866.913 952.585C872.06 948.207 877.378 944.001 882.458 939.535C892.53 930.732 902.046 921.311 910.95 911.328C913.826 908.15 919.109 902.428 921.184 898.894C900.326 872.031 891.989 852.914 856.208 840.267C846.246 836.746 842.801 835.697 832.702 840.34C830.89 839.299 828.797 838.209 826.924 837.253C804.794 825.958 784.684 811.395 763.863 797.914C745.776 786.224 726.725 776.304 711.306 760.988C679.249 729.147 639.5 719.03 596.695 710.433C593.886 706.779 590.296 700.715 587.539 696.648C594.874 683.635 602.8 671.924 606.599 656.972C610.733 640.702 596.724 626.71 588.418 613.499Z"/><path fill="#FFFFFE" d="M0 0L104.238 0C94.6956 1.79475 82.727 2.55281 73.7196 5.85979C52.453 13.6677 31.5683 24.6315 13.939 38.9608C5.8444 45.5402 3.69907 49.1125 0 58.6592L0 0Z"/><path fill="#00008B" d="M23.4675 121.697L23.0448 121.284C17.9886 116.433 18.0137 114.846 15.3389 109.108C11.8833 101.695 13.9375 65.8514 17.287 60.9842C27.2188 46.5523 63.4754 25.7677 80.2556 20.778C99.7606 14.9781 120.671 11.9787 138.752 21.9695C165.672 36.6282 174.383 68.4995 177.66 96.8364C178.374 103.009 177.044 113.348 179.04 118.877C184.622 110.118 200.064 104.841 209.606 109.399C215.914 109.862 224.169 111.208 230.116 113.423C232.061 112.322 245.488 109.222 248.646 108.365C278.55 100.242 307.772 84.9464 339.468 86.3114C357.473 87.0867 380.22 95.3372 396.115 104.121C412.979 115.154 433.865 121.348 452.057 128.086C468.093 133.988 483.944 140.382 499.586 147.262C517.363 153.114 511.376 154.592 507.489 169.793C560.463 179.882 601.132 260.776 629.738 301.924C635.749 310.607 640.792 320.142 647.638 328.214C655.697 337.716 666.725 345.316 675.796 353.495C688.425 364.883 714.709 383.543 722.931 397.969C723.789 400.975 722.959 404.832 720.214 406.231C710.447 411.206 698.94 388.584 691.236 386.758C688.846 388.645 691.481 391.743 692.748 393.476C696.11 397.366 699.577 401.403 702.925 405.286C710.539 414.117 714.332 419.61 704.609 428.547C696.069 423.265 681.349 402.118 675.119 400.561L674.672 401.302C678.449 411.13 704.113 430.05 694.695 439.111C689.42 444.284 684.135 438.539 680.691 434.536C674.082 426.852 667.404 418.548 659.487 412.179C663.37 421.384 680.485 435.673 680.519 442.206C680.53 444.251 679.561 446 678.134 447.409C676.96 448.569 675.788 449.368 674.061 449.283C671.778 449.172 669.632 447.849 667.881 446.48C663.388 442.968 659.434 438.097 655.457 434.004C649.349 427.717 642.572 421.628 637.391 414.541C630.746 405.453 624.731 388.777 621.22 377.846C618.173 368.36 616.392 360.089 610.67 351.769C597.292 332.314 583.177 315.102 566.047 298.808C555.575 288.847 544.056 279.944 533.02 270.63C516.906 257.03 501.583 243.272 486.935 228.112C485.925 231.904 483.317 243.559 480.59 245.298C478.054 245.272 475.747 244.265 473.308 243.432C457.322 239.305 441.531 235.667 425.662 231.031C425.811 231.183 425.96 231.335 426.109 231.487C446.498 257.854 465.091 285.578 489.519 308.606C500.315 318.902 515.573 321.062 527.44 329.564C534.344 334.511 537.781 344.388 544.069 349.329C559.864 361.742 577.016 371.932 592.616 384.74C611.183 400.144 629.109 416.305 646.349 433.182C663.229 449.868 732.306 517.961 738.589 534.917C736.298 547.386 732.47 549.647 728.038 559.692C739.372 572.268 747.882 581.556 761.926 591.577C762.158 589.176 762.327 587.238 762.777 584.851C772.49 588.307 798.236 603.244 805.9 610.089C823.743 620.834 847.781 649.06 860.22 666.009C872.966 683.377 919.905 755.266 935.867 762.211C947.91 767.102 961.129 782.897 969.236 792.711C973.486 797.856 983.617 806.413 986.025 811.804C989.444 814.243 992.92 816.601 996.45 818.877C997.977 818.679 999.934 818.22 1001.17 819.496C1004.04 822.482 1006.75 827.461 1006.73 831.69C1006.58 836.862 1001.24 841.846 998.068 845.508C989.657 855.226 978.047 861.286 967.589 868.45C962.322 872.057 958.403 875.161 951.715 874.975C941.604 874.695 935.802 865.284 933.309 856.608C930.707 849.83 928.002 840.958 924.275 834.821C922.002 831.077 914.997 827.534 911.62 824.703C907.972 821.645 904.979 817.011 902.055 813.261C897.661 807.626 894.718 800.632 890.861 794.788C884.027 784.435 875.613 773.153 867.13 764.103C849.128 744.895 825.262 732.625 802.614 719.986C787.424 711.421 773.414 702.73 759.883 691.685C748.142 682.101 738.119 672.185 727.659 661.261C723.554 656.975 715.83 647.18 710.799 645.317C700.875 641.642 691.119 638.48 681.367 634.184C671.395 629.788 661.845 624.49 652.836 618.357C647.125 614.398 641.821 609.992 636.062 606.094L620.61 616.373C611.485 609.402 602.351 600.33 593.507 593.92C570.331 577.124 545.081 560.585 522.156 543.519C526.097 549.069 529.306 555.26 532.874 561.119C539.204 571.383 545.592 581.611 552.039 591.803C559.991 604.27 587.853 641.05 590.627 651.724C586.594 672.988 580.232 675.644 569.524 692.251C575.282 706.007 583.344 726.821 598.762 732.049C600.25 731.191 600.149 730.159 600.883 728.8C622.352 733.492 648.972 740.859 668.254 750.942C690.242 762.44 704.21 779.701 724.945 793.62C745.075 806.882 765.465 819.745 786.103 832.202C791.119 835.211 799.381 840.34 804.259 843.348C809.463 846.556 833.978 858.349 836.431 861.499L836.686 863.46L837.066 863.576C837.526 863.088 839.593 856.253 841.109 853.437C847.412 856.206 848.093 854.411 852.661 860.635L842.431 857.357C841.053 866.157 839.164 875.273 836.184 883.69C834.312 886.087 832.73 886.91 829.618 887.035C813.578 887.674 797.23 886.663 781.175 887.049C783.67 898.253 785.932 909.508 787.958 920.806C789.111 926.914 791.113 936.532 791.619 942.588C789.182 939.878 789.081 933.701 788.014 930.393C787.841 929.855 785.843 926.947 785.44 926.356C783.725 918.621 779.305 895.61 778.931 887.912C762.939 883.161 746.753 875.467 730.339 871.175C724.235 869.579 717.47 866.378 711.246 864.422C685.809 856.426 660.246 848.795 635.286 839.377C628.45 836.797 611.121 830.692 605.339 826.677C603.254 825.757 601.633 824.932 599.62 823.859C588.197 819.166 576.834 812.973 566.304 806.53C562.591 804.623 558.553 800.247 554.845 798.559C543.968 793.61 530.803 789.288 520.318 783.674C508.227 777.2 496.928 760.162 488.992 748.905C481.698 748.868 461.382 749.673 456.207 745.276C445.173 735.263 438.101 721.496 429.999 709.16C419.807 693.643 410.072 677.887 400.837 661.78C396.362 654.276 392.831 645.921 388.39 638.434C375.449 616.62 364.705 593.861 353.718 571.031C348.953 561.128 345.127 550.59 339.717 540.976C337.465 536.974 332.948 534.376 329.765 531.113C327.302 528.539 322.259 522.642 320.734 519.641C313.56 505.522 307.284 491.052 299.386 477.296C281.236 446.194 257.155 419.218 227.863 398.208C220.169 392.689 213.359 387.171 204.431 383.561C206.581 394.207 215.217 413.286 218.843 424.555C221.631 433.219 224.863 444.918 228.138 452.915C221.978 458.649 209.684 462.959 201.842 465.828C204.126 472.794 208.648 482.244 211.447 489.836C219.741 512.006 225.259 535.117 227.877 558.642C228.983 569.57 229.346 580.163 229.565 591.133C229.788 602.277 229.623 612.477 231.837 623.493C244.148 630.941 259.015 642.022 257.523 658.187C257.352 660.041 256.417 662.996 255.892 664.842C258.676 667.59 260.657 669.834 260.413 673.904L260.828 674.031C265.096 675.298 277.853 676.401 280.214 680.163C282.809 684.297 274.851 691.638 271.16 692.442C269.964 692.82 268.513 692.807 267.307 693.021C266.831 694.712 266.941 697.062 266.924 698.873C262.355 706.108 259.185 705.79 251.45 703.844C245.736 702.276 222.405 698.056 220.027 695.78C210.501 686.66 207.815 654.652 202.094 641.523C195.658 626.753 189.271 618.01 182.159 605.149C171.139 585.218 160.374 565.842 153.07 544.499C145.393 522.067 143.97 500.641 139.799 477.767C129.778 477.5 114.188 476.199 104.12 474.826C104.163 457.32 102.475 438.274 101.181 420.738C100.592 412.767 100.191 402.217 98.519 394.676C96.6685 386.331 91.7944 376.623 88.9182 368.495C80.733 345.366 77.424 322.612 79.1107 298.12C79.4005 293.911 79.1698 285.525 80.8996 281.83C85.6678 271.645 92.9765 261.772 98.4672 251.843C104.174 241.523 107.483 231.263 112.217 220.665C114.836 210.983 116.421 210.218 117.014 199.284C113.199 195.876 106.115 191.887 101.445 188.441C90.9724 192.997 79.6814 201.318 68.4871 204.434C64.8957 205.433 59.2569 205.552 56.0365 203.325C51.3519 200.086 51.6444 194.091 50.7431 188.911C49.0918 187.347 47.5478 185.73 45.9648 184.099C45.9023 182.054 45.9811 179.703 45.9987 177.631C41.2465 178.31 36.9252 179.783 32.4519 178.33C31.8389 177.661 30.0921 176.517 29.8071 175.99C26.5624 169.99 32.0088 166.357 29.4494 161.405C25.4871 158.898 21.6819 166.101 17.2441 162.624C14.7116 157.604 17.0025 149.605 18.5285 144.438C20.8032 136.735 22.5964 129.735 23.4675 121.697Z"/><path fill="#8B4513" d="M23.4675 121.697L23.0448 121.284C17.9886 116.433 18.0137 114.846 15.3389 109.108C11.8833 101.695 13.9375 65.8514 17.287 60.9842C27.2188 46.5523 63.4754 25.7677 80.2556 20.778C99.7606 14.9781 120.671 11.9787 138.752 21.9695C165.672 36.6282 174.383 68.4995 177.66 96.8364C178.374 103.009 177.044 113.348 179.04 118.877C184.622 110.118 200.064 104.841 209.606 109.399C215.914 109.862 224.169 111.208 230.116 113.423L233.741 115.128L240.849 119.464C242.309 118.234 241.832 118.964 242.461 117.284L238.499 114.402C264.67 107.725 289.695 97.1409 315.767 91.0922C319.38 101.034 322.031 111.549 325.715 121.438C341.301 163.273 361.42 203.084 404.316 222.338C406.827 223.465 418.635 228.265 419.813 229.458C426.216 235.94 433.911 246.98 439.467 254.44C454.376 274.456 467.417 291.339 485.082 308.938C499.971 323.772 517.741 323.335 530.433 336.822C531.16 337.824 531.226 338.14 531.701 339.3C534.428 342.666 536.137 345.819 538.565 349.258C533.217 351.52 523.786 356.312 519.071 359.768C463.888 393.455 412.445 442.723 370.463 491.765C362.356 501.234 344.848 523.721 338.797 534.36C336.035 532.433 330.183 528.617 329.132 525.256C328.667 523.769 329.758 522.984 330.77 521.653C329.805 521.235 329.047 520.843 328.113 520.357L327.139 521.404C323.469 520.87 315.072 499.759 313.23 495.835C307.691 483.924 301.239 472.459 293.932 461.543C272.466 429.595 236.241 395.422 202.221 377.212C179.954 365.293 163.348 359.507 143.238 342.266C128.741 329.838 118.875 318.41 106.037 304.21C101.448 299.133 89.4011 285.685 83.9257 282.376C95.3482 263.443 103.774 250.705 111.635 229.914C110.02 227.033 116.223 220.15 115.498 214.046L115.064 213.739C114.875 215.942 113.807 219.097 112.217 220.665C114.836 210.983 116.421 210.218 117.014 199.284C113.199 195.876 106.115 191.887 101.445 188.441C90.9724 192.997 79.6814 201.318 68.4871 204.434C64.8957 205.433 59.2569 205.552 56.0365 203.325C51.3519 200.086 51.6444 194.091 50.7431 188.911C49.0918 187.347 47.5478 185.73 45.9648 184.099C45.9023 182.054 45.9811 179.703 45.9987 177.631C41.2465 178.31 36.9252 179.783 32.4519 178.33C31.8389 177.661 30.0921 176.517 29.8071 175.99C26.5624 169.99 32.0088 166.357 29.4494 161.405C25.4871 158.898 21.6819 166.101 17.2441 162.624C14.7116 157.604 17.0025 149.605 18.5285 144.438C20.8032 136.735 22.5964 129.735 23.4675 121.697Z"/><path fill="#8B4513" d="M23.4675 121.697L23.0448 121.284C17.9886 116.433 18.0137 114.846 15.3389 109.108C11.8833 101.695 13.9375 65.8514 17.287 60.9842C27.2188 46.5523 63.4754 25.7677 80.2556 20.778C99.7606 14.9781 120.671 11.9787 138.752 21.9695C165.672 36.6282 174.383 68.4995 177.66 96.8364C178.374 103.009 177.044 113.348 179.04 118.877C184.622 110.118 200.064 104.841 209.606 109.399C203.677 109.538 199.018 110.302 193.49 112.677C192.091 113.312 189.863 114.268 188.628 115.147C187.277 115.873 184.086 117.719 182.796 118.078C179.259 119.412 178.785 122.526 179.691 125.819C185.26 124.797 191.832 129.365 196.375 132.346C209.201 140.761 217.375 162.168 220.023 176.561C222.778 191.54 221.644 211.392 217.096 226.11L210.81 225.953C214.006 228.406 215.984 226.367 217.262 227.705C214.372 228.546 197.668 225.103 192.888 225.993C177.46 222.328 169.478 214.606 155.902 207.979C151.343 205.754 143.83 204.415 138.729 203.42C140.356 205.357 142.057 207.185 143.764 209.049C143.454 210.176 143.242 210.921 142.829 212.01C140.147 210.021 137.514 207.079 135.151 204.737C131.68 201.296 125.108 199.842 120.29 198.346C119.919 201.523 119.571 204.702 119.247 207.883C118.337 210.047 117.649 214.213 117.039 215.067C115.645 219.725 113.616 225.423 111.635 229.914C110.02 227.033 116.223 220.15 115.498 214.046L115.064 213.739C114.875 215.942 113.807 219.097 112.217 220.665C114.836 210.983 116.421 210.218 117.014 199.284C113.199 195.876 106.115 191.887 101.445 188.441C90.9724 192.997 79.6814 201.318 68.4871 204.434C64.8957 205.433 59.2569 205.552 56.0365 203.325C51.3519 200.086 51.6444 194.091 50.7431 188.911C49.0918 187.347 47.5478 185.73 45.9648 184.099C45.9023 182.054 45.9811 179.703 45.9987 177.631C41.2465 178.31 36.9252 179.783 32.4519 178.33C31.8389 177.661 30.0921 176.517 29.8071 175.99C26.5624 169.99 32.0088 166.357 29.4494 161.405C25.4871 158.898 21.6819 166.101 17.2441 162.624C14.7116 157.604 17.0025 149.605 18.5285 144.438C20.8032 136.735 22.5964 129.735 23.4675 121.697Z"/><path fill="#00008B" d="M23.4675 121.697L23.0448 121.284C17.9886 116.433 18.0137 114.846 15.3389 109.108C11.8833 101.695 13.9375 65.8514 17.287 60.9842C27.2188 46.5523 63.4754 25.7677 80.2556 20.778C99.7606 14.9781 120.671 11.9787 138.752 21.9695C165.672 36.6282 174.383 68.4995 177.66 96.8364C178.374 103.009 177.044 113.348 179.04 118.877C184.622 110.118 200.064 104.841 209.606 109.399C203.677 109.538 199.018 110.302 193.49 112.677C192.091 113.312 189.863 114.268 188.628 115.147C187.277 115.873 184.086 117.719 182.796 118.078C179.259 119.412 178.785 122.526 179.691 125.819L177.688 126.462C168.656 129.107 154.621 128.122 149.379 119.869C144.838 112.719 140.844 103.112 137.598 95.2676C135.895 91.6469 134.876 89.6796 132.757 86.3078C112.005 63.7988 102.006 103.545 94.9071 105.721C93.4412 104.825 92.5378 101.983 91.4564 100.303C86.5039 92.7191 82.6876 87.1096 80.952 78.1303C79.6049 71.1612 77.4664 57.8684 71.0251 54.3407C58.9927 47.7511 26.3384 65.7042 19.5783 74.7367C16.5827 78.7392 16.4961 104.56 19.2685 109.929C20.8494 113.541 21.1302 114.946 23.4675 118.792C23.4399 114.682 23.0662 109.998 26.091 106.64L26.946 107.122C31.0965 122.618 15.7469 155.34 21.0203 160.271C25.2782 159.873 26.5358 153.904 30.8489 153.701L31.879 154.578C31.6988 156.16 31.5894 155.79 30.1855 157.24C31.5822 158.365 33.8421 159.727 33.8717 161.253C33.9595 165.771 30.9219 170.923 32.0914 175.441C32.7114 175.854 32.7312 175.959 33.4183 176.169L34.1927 176.157C39.6863 176.047 44.9402 173.812 48.7337 175.617C50.8353 178.451 49.8268 180.529 48.6545 183.623L53.904 186.589C53.8519 194.517 53.8214 203.041 64.375 201.973C72.9649 201.103 95.5923 189.136 101.383 183.464C115.815 194.667 128.963 198.21 147.156 201.736C162.705 204.75 174.642 216.079 189.558 221.434C194.406 223.175 208.895 224.918 210.81 225.953C214.006 228.406 215.984 226.367 217.262 227.705C214.372 228.546 197.668 225.103 192.888 225.993C177.46 222.328 169.478 214.606 155.902 207.979C151.343 205.754 143.83 204.415 138.729 203.42C140.356 205.357 142.057 207.185 143.764 209.049C143.454 210.176 143.242 210.921 142.829 212.01C140.147 210.021 137.514 207.079 135.151 204.737C131.68 201.296 125.108 199.842 120.29 198.346C119.919 201.523 119.571 204.702 119.247 207.883C118.337 210.047 117.649 214.213 117.039 215.067C115.645 219.725 113.616 225.423 111.635 229.914C110.02 227.033 116.223 220.15 115.498 214.046L115.064 213.739C114.875 215.942 113.807 219.097 112.217 220.665C114.836 210.983 116.421 210.218 117.014 199.284C113.199 195.876 106.115 191.887 101.445 188.441C90.9724 192.997 79.6814 201.318 68.4871 204.434C64.8957 205.433 59.2569 205.552 56.0365 203.325C51.3519 200.086 51.6444 194.091 50.7431 188.911C49.0918 187.347 47.5478 185.73 45.9648 184.099C45.9023 182.054 45.9811 179.703 45.9987 177.631C41.2465 178.31 36.9252 179.783 32.4519 178.33C31.8389 177.661 30.0921 176.517 29.8071 175.99C26.5624 169.99 32.0088 166.357 29.4494 161.405C25.4871 158.898 21.6819 166.101 17.2441 162.624C14.7116 157.604 17.0025 149.605 18.5285 144.438C20.8032 136.735 22.5964 129.735 23.4675 121.697Z"/><path fill="#8B4513" d="M109.325 19.2207C154.084 15.931 172.281 62.8617 174.352 100.156C174.855 109.207 174.926 114.423 176.794 123.393C170.783 123.617 162.014 124.194 156.448 121.683C148.758 118.212 141.658 88.133 131.314 79.0722C128.347 76.474 124.87 74.6911 120.842 74.9899C113.32 75.548 107.699 82.0526 103.108 87.3522C100.096 90.8832 97.3482 94.2958 95.1905 98.4152C83.1184 81.3321 86.7826 68.2682 76.603 53.9993C64.8619 37.5417 27.3824 61.72 17.5398 70.971C18.7621 66.3897 19.8975 61.966 23.6083 58.5609C47.2915 36.8291 76.8121 21.2324 109.325 19.2207Z"/><path fill="#00008B" d="M124.279 83.8641C127.602 84.6633 128.269 84.9561 131.325 86.3991L132.757 86.3078C134.876 89.6796 135.895 91.6469 137.598 95.2676L135.436 95.8873C136.049 107.561 134.154 113.52 127.546 122.05C119.254 132.754 105.564 122.992 111.264 116.282C111.942 115.484 122.447 110.029 121.372 110.22C124.21 114.042 114.1 118.198 114.691 122.135C124.717 128.131 135.023 103.45 131.146 94.3037C126.06 82.3064 114.564 94.3138 109.935 99.2565C112.543 100.682 115.512 101.169 117.729 102.828L117.684 103.4C115.156 104.266 110.107 104.659 107.776 103.106C107.567 102.673 107.156 101.847 107.028 101.421C104.868 94.2414 119.444 85.7479 124.279 83.8641Z"/><path fill="#8B4513" d="M132.757 86.3078C134.876 89.6796 135.895 91.6469 137.598 95.2676L135.436 95.8873C134.42 91.5746 134.266 89.8376 131.325 86.3991L132.757 86.3078Z"/><path fill="#32CD32" d="M209.606 109.399C215.914 109.862 224.169 111.208 230.116 113.423L233.741 115.128L240.849 119.464C260.2 133.79 272.957 147.721 279.284 171.393C269.692 175.5 256.845 180.523 248.796 186.668C249.921 207.585 252.16 223.559 248.062 244.726C244.352 263.888 239.74 256.458 223.804 255.12C208.715 253.54 193.359 249.371 178.487 247.309L178.296 246.643C179.53 244.242 182.914 240.026 184.681 237.692C183.069 236.832 183.518 237.467 182.943 236.019C183.219 234.553 183.818 234.213 184.909 233.178L179.635 230.671C166.682 225.262 154.596 217.977 143.764 209.049C142.057 207.185 140.356 205.357 138.729 203.42C143.83 204.415 151.343 205.754 155.902 207.979C169.478 214.606 177.46 222.328 192.888 225.993C197.668 225.103 214.372 228.546 217.262 227.705C215.984 226.367 214.006 228.406 210.81 225.953L217.096 226.11C221.644 211.392 222.778 191.54 220.023 176.561C217.375 162.168 209.201 140.761 196.375 132.346C191.832 129.365 185.26 124.797 179.691 125.819C178.785 122.526 179.259 119.412 182.796 118.078C184.086 117.719 187.277 115.873 188.628 115.147C189.863 114.268 192.091 113.312 193.49 112.677C199.018 110.302 203.677 109.538 209.606 109.399Z"/><path fill="#32CD32" d="M188.628 115.147C195.558 114.863 202.819 118.666 207.621 123.433C224.592 140.284 236.019 166.032 236.624 189.856C237.029 205.82 235.325 224.984 233.09 240.564C221.574 239.76 195.311 237.142 184.909 233.178L179.635 230.671C166.682 225.262 154.596 217.977 143.764 209.049C142.057 207.185 140.356 205.357 138.729 203.42C143.83 204.415 151.343 205.754 155.902 207.979C169.478 214.606 177.46 222.328 192.888 225.993C197.668 225.103 214.372 228.546 217.262 227.705C215.984 226.367 214.006 228.406 210.81 225.953L217.096 226.11C221.644 211.392 222.778 191.54 220.023 176.561C217.375 162.168 209.201 140.761 196.375 132.346C191.832 129.365 185.26 124.797 179.691 125.819C178.785 122.526 179.259 119.412 182.796 118.078C184.086 117.719 187.277 115.873 188.628 115.147Z"/><path fill="#00008B" d="M179.691 125.819C178.785 122.526 179.259 119.412 182.796 118.078C182.267 120.487 181.998 119.921 182.856 121.699C186.931 124.727 193.571 126.009 197.714 129.212C225.947 151.04 229.94 198.28 219.375 229.465C211.071 229.097 200.81 228.203 192.888 225.993C197.668 225.103 214.372 228.546 217.262 227.705C215.984 226.367 214.006 228.406 210.81 225.953L217.096 226.11C221.644 211.392 222.778 191.54 220.023 176.561C217.375 162.168 209.201 140.761 196.375 132.346C191.832 129.365 185.26 124.797 179.691 125.819Z"/><path fill="#00008B" d="M188.628 115.147C189.863 114.268 192.091 113.312 193.49 112.677L194.44 112.991C195.66 113.386 196.051 113.401 197.186 113.654C207.21 115.89 217.144 127.822 222.504 135.905C240.554 163.123 241.41 190.227 238.364 221.432C237.7 228.237 236.242 237.7 235.919 244.174C228.543 243.674 221.185 242.93 213.858 241.944C211.395 241.625 185.508 237.499 184.681 237.692C183.069 236.832 183.518 237.467 182.943 236.019C183.219 234.553 183.818 234.213 184.909 233.178C195.311 237.142 221.574 239.76 233.09 240.564C235.325 224.984 237.029 205.82 236.624 189.856C236.019 166.032 224.592 140.284 207.621 123.433C202.819 118.666 195.558 114.863 188.628 115.147Z"/><path fill="#8B4513" d="M531.701 339.3C534.428 342.666 536.137 345.819 538.565 349.258C533.217 351.52 523.786 356.312 519.071 359.768C463.888 393.455 412.445 442.723 370.463 491.765C362.356 501.234 344.848 523.721 338.797 534.36C336.035 532.433 330.183 528.617 329.132 525.256C328.667 523.769 329.758 522.984 330.77 521.653C334.708 518.497 348.157 498.711 352.216 493.445C356.876 487.211 361.993 481.294 367.118 475.455C407.217 429.774 452.144 386.7 504.023 354.591C512.775 349.175 522.559 344.297 531.701 339.3Z"/><path fill="#32CD32" d="M120.29 198.346C125.108 199.842 131.68 201.296 135.151 204.737C137.514 207.079 140.147 210.021 142.829 212.01C143.242 210.921 143.454 210.176 143.764 209.049C154.596 217.977 166.682 225.262 179.635 230.671L184.909 233.178C183.818 234.213 183.219 234.553 182.943 236.019C183.518 237.467 183.069 236.832 184.681 237.692C182.914 240.026 179.53 244.242 178.296 246.643L178.487 247.309L177.645 246.992L177.414 245.225L176.385 244.577C168.12 254.39 165.316 259.715 158.438 270.174C154.694 267.572 150.848 263.554 147.771 260.51C139.004 251.839 118.853 219.43 119.247 207.883C119.571 204.702 119.919 201.523 120.29 198.346Z"/><path fill="#111158" d="M143.764 209.049C154.596 217.977 166.682 225.262 179.635 230.671L184.909 233.178C183.818 234.213 183.219 234.553 182.943 236.019C183.518 237.467 183.069 236.832 184.681 237.692C182.914 240.026 179.53 244.242 178.296 246.643L178.487 247.309L177.645 246.992L177.414 245.225L176.385 244.577C177.656 242.383 181.492 237.352 183.125 235.075L177.512 232.711C166.289 228.189 152.253 219.877 142.829 212.01C143.242 210.921 143.454 210.176 143.764 209.049Z"/><path fill="#00008B" d="M242.461 117.284C259.77 128.082 277.017 148.62 282.183 168.806C282.625 170.533 282.634 171.439 281.762 172.991C276.885 177.124 260.352 181.932 251.747 188.291C252.446 194.447 253.245 200.63 253.463 206.826C253.844 217.686 253.281 249.124 247.052 257.319C245.908 258.824 244.593 259.994 242.671 260.272C234.982 261.384 185.429 252.288 176.374 249.729C170.927 256.571 166.856 263.617 161.765 270.626C158.535 275.072 153.017 270.888 150.342 268.208C135.866 253.707 124.307 234.148 117.039 215.067C117.649 214.213 118.337 210.047 119.247 207.883C118.853 219.43 139.004 251.839 147.771 260.51C150.848 263.554 154.694 267.572 158.438 270.174C165.316 259.715 168.12 254.39 176.385 244.577L177.414 245.225L177.645 246.992L178.487 247.309C193.359 249.371 208.715 253.54 223.804 255.12C239.74 256.458 244.352 263.888 248.062 244.726C252.16 223.559 249.921 207.585 248.796 186.668C256.845 180.523 269.692 175.5 279.284 171.393C272.957 147.721 260.2 133.79 240.849 119.464C242.309 118.234 241.832 118.964 242.461 117.284Z"/><path fill="#00008B" d="M530.433 336.822C531.16 337.824 531.226 338.14 531.701 339.3C522.559 344.297 512.775 349.175 504.023 354.591C452.144 386.7 407.217 429.774 367.118 475.455C361.993 481.294 356.876 487.211 352.216 493.445C348.157 498.711 334.708 518.497 330.77 521.653C329.805 521.235 329.047 520.843 328.113 520.357C337.656 508.274 346.3 495.627 356.221 483.688C400.006 430.981 450.932 381.623 510.519 347.098C516.075 343.879 525.772 340.4 530.433 336.822Z"/><path fill="#00008B" d="M308.615 309.455C289.98 309.361 272.021 309.209 253.458 311.511C250.98 311.818 240.703 312.845 238.74 312.66C238.87 312.602 239.001 312.543 239.131 312.485L239.79 312.207C241.343 311.537 242.917 310.935 244.593 310.596C316.954 295.952 392.328 294.916 464.741 309.786C470.268 310.921 487.865 314.802 491.802 317.232C489.558 317.641 456.077 310.572 451.172 309.76C439.313 307.872 427.418 306.213 415.495 304.784C387.419 301.515 353.232 302.133 325.013 303.506C317.04 303.894 304.668 304.581 297.071 305.916C298.409 305.935 299.746 305.976 301.082 306.039C350.02 305.973 391.36 309.348 439.338 319.034C450.966 321.341 462.533 323.945 474.028 326.844C481.362 328.649 490.184 331.098 497.492 332.534L496.946 334.083C470.433 329.793 443.743 323.681 417.601 319.415C381.538 313.649 345.126 310.322 308.615 309.455Z"/><path fill="#341C09" d="M497.492 332.534C501.674 333.463 504.663 333.997 508.582 335.688C504.939 335.34 500.523 334.762 496.946 334.083L497.492 332.534Z"/><path fill="#8B4513" d="M519.071 359.768C516.927 363.901 488.332 379.618 482.405 386.381L482.528 386.798C485.032 385.788 490.006 381.568 492.61 379.823C498.978 375.553 525.814 356.143 531.541 356.238C512.941 367.171 500.558 375.287 483.415 388.215C494.932 395.305 514.059 411.43 524.898 420.225C542.469 434.483 560.201 449.295 577.24 464.154C580.884 467.332 598.878 482.628 601.117 485.492C607.555 490.839 615.464 489.912 623.5 491.201C629.678 492.192 635.114 493.183 641.204 494.624C630.538 495.414 622.099 493.616 612.21 493.961C615.685 496.904 618.88 499.533 622.061 502.815C635.188 515.086 648.469 527.672 661.795 539.728C667.354 544.758 680.354 558.6 685.598 562.445L685.005 562.899C664.598 580.628 643.227 597.217 620.99 612.59C618.405 610.671 615.84 608.353 613.478 606.167C589.556 584.02 561.227 567.525 535.121 548.175C531.062 545.165 525.833 541.376 521.487 538.84C515.136 537.596 498.198 519.887 495.126 520.374L494.803 520.976C495.494 522.335 496.427 522.857 497.645 523.79C498.744 526.468 487.809 557.663 486.119 562.933L478.42 587.232C477.528 590.04 475.57 596.836 474.48 599.133C474.11 600.666 474.015 600.651 473.975 602.198C474.618 601.843 474.881 601.746 475.449 601.284C485.148 577.002 495.527 552.634 500.357 526.824L504.088 530.607C503.674 543.247 502.554 556.486 503.031 569.106C504.211 600.302 508.671 630.438 517.983 660.24C500.41 671.439 483.955 687.407 471.828 704.266C470.389 706.268 467.877 710.562 465.721 711.322L464.077 710.319C463.831 711.514 463.949 711.406 464.111 712.596L461.499 711.691C460.028 710.371 451.839 698.805 450.415 696.795C431.495 670.087 411.842 640.396 396.986 611.281C392.459 602.213 388.038 593.093 383.725 583.921C381.935 580.153 378.861 573.034 376.717 569.748C376.285 569.525 375.09 568.645 374.623 568.321C371.532 572.024 367.077 580.538 364.681 584.915C359.719 575.29 355.105 565.49 350.848 555.533C348.363 549.871 344.56 540.754 341.519 535.561C341.405 534.429 341.596 534.93 340.986 534.043L338.797 534.36C344.848 523.721 362.356 501.234 370.463 491.765C412.445 442.723 463.888 393.455 519.071 359.768Z"/><path fill="#8B4513" d="M481.755 389.76C511.633 413.577 541.741 436.852 570.159 462.45C577.521 469.082 592.91 481.146 598.969 488.032C599.27 486.884 599.288 486.973 599.818 485.889L601.117 485.492C607.555 490.839 615.464 489.912 623.5 491.201C629.678 492.192 635.114 493.183 641.204 494.624C630.538 495.414 622.099 493.616 612.21 493.961C615.685 496.904 618.88 499.533 622.061 502.815C635.188 515.086 648.469 527.672 661.795 539.728C667.354 544.758 680.354 558.6 685.598 562.445L685.005 562.899C664.598 580.628 643.227 597.217 620.99 612.59C618.405 610.671 615.84 608.353 613.478 606.167C589.556 584.02 561.227 567.525 535.121 548.175C531.062 545.165 525.833 541.376 521.487 538.84C520.178 537.401 514.87 533.501 513.092 532.079C508.084 528.077 503.068 523.757 497.878 520.033C509.51 519.845 522.778 522.485 534.243 524.376C557.007 528.13 579.238 532.922 601.473 539.157C613.567 542.549 625.349 546.869 637.499 550.194C627.888 544.738 609.389 538.542 598.753 535.31C567.3 525.753 529.174 517.76 496.165 517C485.165 510.5 464.879 491.551 455.27 482.46C478.708 473.765 495.135 460.895 509.391 440.263C504.677 444.013 499.391 449.635 494.653 453.715C480.884 465.575 469.155 472.735 451.958 478.07C443.389 471.15 428.79 450.71 422.693 440.969C443.014 421.741 458.983 406.568 481.755 389.76Z"/><defs><linearGradient id="gradient_0" gradientUnits="userSpaceOnUse" x1="567.02856" y1="498.49429" x2="568.25598" y2="484.19025"><stop offset="0" stop-color="#140C6C"/><stop offset="1" stop-color="#0000A8"/></linearGradient></defs><path fill="url(#gradient_0)" d="M598.969 488.032C599.27 486.884 599.288 486.973 599.818 485.889L601.117 485.492C607.555 490.839 615.464 489.912 623.5 491.201C629.678 492.192 635.114 493.183 641.204 494.624C630.538 495.414 622.099 493.616 612.21 493.961C615.685 496.904 618.88 499.533 622.061 502.815C618.058 501.855 619.614 499.708 614.846 499.233C615.103 500.093 616.17 500.709 617.016 501.42L616.366 502.167C613.178 500.098 610.711 496.839 606.048 494.107C589.086 493.786 571.935 492.438 554.993 492.095C537.521 491.807 520.045 492.374 502.629 493.795L499.989 493.284L499.698 492.639C505.608 492.306 512.534 490.973 518.594 490.448C528.79 489.564 539.109 488.777 549.325 488.228C565.638 487.351 582.763 488.617 598.969 488.032Z"/><path fill="#00008B" d="M616.366 502.167L617.016 501.42C616.17 500.709 615.103 500.093 614.846 499.233C619.614 499.708 618.058 501.855 622.061 502.815C635.188 515.086 648.469 527.672 661.795 539.728C667.354 544.758 680.354 558.6 685.598 562.445L685.005 562.899C678.975 558.204 673.128 553.281 667.465 548.147C650.473 532.74 632.811 518.188 616.366 502.167Z"/><path fill="#8B4513" d="M502.629 493.795C499.03 494.422 490.722 494.351 485.983 494.847C488.534 493.522 496.634 492.893 499.698 492.639L499.989 493.284L502.629 493.795Z"/><path fill="#00008B" d="M519.071 359.768C516.927 363.901 488.332 379.618 482.405 386.381L482.528 386.798C485.032 385.788 490.006 381.568 492.61 379.823C498.978 375.553 525.814 356.143 531.541 356.238C512.941 367.171 500.558 375.287 483.415 388.215C494.932 395.305 514.059 411.43 524.898 420.225C542.469 434.483 560.201 449.295 577.24 464.154C580.884 467.332 598.878 482.628 601.117 485.492L599.818 485.889C599.288 486.973 599.27 486.884 598.969 488.032C592.91 481.146 577.521 469.082 570.159 462.45C541.741 436.852 511.633 413.577 481.755 389.76C458.983 406.568 443.014 421.741 422.693 440.969C428.79 450.71 443.389 471.15 451.958 478.07C469.155 472.735 480.884 465.575 494.653 453.715C499.391 449.635 504.677 444.013 509.391 440.263C495.135 460.895 478.708 473.765 455.27 482.46C464.879 491.551 485.165 510.5 496.165 517C529.174 517.76 567.3 525.753 598.753 535.31C609.389 538.542 627.888 544.738 637.499 550.194C625.349 546.869 613.567 542.549 601.473 539.157C579.238 532.922 557.007 528.13 534.243 524.376C522.778 522.485 509.51 519.845 497.878 520.033C503.068 523.757 508.084 528.077 513.092 532.079C514.87 533.501 520.178 537.401 521.487 538.84C515.136 537.596 498.198 519.887 495.126 520.374L494.803 520.976C495.494 522.335 496.427 522.857 497.645 523.79C498.744 526.468 487.809 557.663 486.119 562.933L478.42 587.232C477.528 590.04 475.57 596.836 474.48 599.133L473.791 598.351C474.961 595.107 475.965 591.59 476.995 588.271C483.629 566.888 491.004 545.968 496.946 524.378C495.921 523.247 494.711 522.065 493.631 520.966C464.245 535.232 447.178 552.342 423.665 573.282C423.189 571.315 427.174 569.939 428.177 566.426C425.959 567.564 424.865 569.655 422.587 570.275C438.622 550.732 468.13 527.971 491.495 518.905C478.25 507.332 464.247 496.434 452.214 483.544C439.653 486.137 420.502 491.762 408.067 492.06C405.215 491.918 403.535 492.302 401.81 490.592C420.569 487.923 430.962 484.087 449.141 479.546C438.34 468.678 428.818 456.608 420.762 443.574C396.821 465.103 376.054 489.181 356.352 514.586C361.732 526.057 366.463 538.187 371.51 549.816C373.046 553.353 376.066 561.529 377.723 564.525C382.564 560.915 387.492 555.6 392.768 551.67C410.16 538.713 427.822 531.656 448.257 525.615C449.674 527.098 449.426 526.331 449.869 528.019C423.911 537.101 399.777 548.72 379.182 567.224C394.976 602.406 413.55 636.273 434.728 668.502C439.345 675.558 444.069 682.543 448.899 689.454C450.817 692.175 463.686 708.959 464.077 710.319C463.831 711.514 463.949 711.406 464.111 712.596L461.499 711.691C460.028 710.371 451.839 698.805 450.415 696.795C431.495 670.087 411.842 640.396 396.986 611.281C392.459 602.213 388.038 593.093 383.725 583.921C381.935 580.153 378.861 573.034 376.717 569.748C376.285 569.525 375.09 568.645 374.623 568.321C371.532 572.024 367.077 580.538 364.681 584.915C359.719 575.29 355.105 565.49 350.848 555.533C348.363 549.871 344.56 540.754 341.519 535.561C341.405 534.429 341.596 534.93 340.986 534.043L338.797 534.36C344.848 523.721 362.356 501.234 370.463 491.765C412.445 442.723 463.888 393.455 519.071 359.768Z"/><path fill="#8B4513" d="M354.978 516.5L369.416 551.813C370.543 554.521 375.168 564.887 375.552 566.725L374.623 568.321C371.532 572.024 367.077 580.538 364.681 584.915C359.719 575.29 355.105 565.49 350.848 555.533C348.363 549.871 344.56 540.754 341.519 535.561C345.466 529.364 350.725 522.853 354.978 516.5Z"/><path fill="#00008B" d="M422.587 570.275C424.865 569.655 425.959 567.564 428.177 566.426C427.174 569.939 423.189 571.315 423.665 573.282C422.373 575.256 405.773 591.326 403.122 593.059C405.992 588.706 418.794 573.71 422.587 570.275Z"/><path fill="#111158" d="M473.791 598.351L474.48 599.133C474.11 600.666 474.015 600.651 473.975 602.198C474.618 601.843 474.881 601.746 475.449 601.284C473.65 607.007 468.661 619.505 465.688 624.468C467.776 616.374 471.324 606.792 473.791 598.351Z"/><path fill="#111158" d="M457.568 523.628C463.579 522.588 476.106 520.231 481.633 520.875C476.373 522.324 466.464 523.517 459.557 525.304L457.568 523.628Z"/><path fill="#00008B" d="M448.257 525.615C451.348 524.895 454.452 524.233 457.568 523.628L459.557 525.304C456.356 526.213 453.08 527.185 449.869 528.019C449.426 526.331 449.674 527.098 448.257 525.615Z"/><path fill="#111158" d="M392.591 491.385C395.664 491.037 398.724 490.602 401.81 490.592C403.535 492.302 405.215 491.918 408.067 492.06C402.852 492.872 397.722 492.402 392.591 491.385Z"/><path fill="#8B4513" d="M541.335 351.945C557.037 362.732 576.147 375.322 590.933 387.206C624.722 414.364 655.273 446.907 685.71 477.826C698.318 490.633 724.645 516.718 734.161 531.196C724.828 532.861 692.738 555.922 685.598 562.445C680.354 558.6 667.354 544.758 661.795 539.728C648.469 527.672 635.188 515.086 622.061 502.815C618.88 499.533 615.685 496.904 612.21 493.961C622.099 493.616 630.538 495.414 641.204 494.624C635.114 493.183 629.678 492.192 623.5 491.201C615.464 489.912 607.555 490.839 601.117 485.492C598.878 482.628 580.884 467.332 577.24 464.154C560.201 449.295 542.469 434.483 524.898 420.225C514.059 411.43 494.932 395.305 483.415 388.215C500.558 375.287 512.941 367.171 531.541 356.238C534.785 354.861 538.127 353.241 541.335 351.945Z"/><path fill="#8B4513" d="M506.643 172.318C508.58 172.833 510.508 173.38 512.426 173.958C525.095 177.84 542.46 189.011 551.715 198.546C580.729 228.437 602.088 265.511 625.083 299.947C630.994 308.8 641.251 326.326 648.406 333.341C667.268 351.836 690.414 367.09 709.075 386.093C713.321 390.404 718.286 394.552 721.087 399.854L722.931 397.969C723.789 400.975 722.959 404.832 720.214 406.231C710.447 411.206 698.94 388.584 691.236 386.758C688.846 388.645 691.481 391.743 692.748 393.476C696.11 397.366 699.577 401.403 702.925 405.286C710.539 414.117 714.332 419.61 704.609 428.547C696.069 423.265 681.349 402.118 675.119 400.561L674.672 401.302C678.449 411.13 704.113 430.05 694.695 439.111L693.23 437.744C692.609 438.073 691.956 438.448 691.254 438.568C684.888 439.664 669.577 415.684 663.655 411.469C662.376 410.558 661.323 410.275 659.758 410.602C658.79 411.434 658.086 412.027 657.912 413.374C657.103 419.667 674.318 435.887 678.562 441.338C676.992 443.482 675.645 444.749 673.79 446.62C669.41 443.385 661.475 434.805 657.124 430.488C651.553 424.961 642.379 416.322 638.372 410.064C632.201 400.425 627.578 385.903 623.844 374.898C622.351 370.497 620.697 362.231 618.722 358.404C614.958 350.999 609.421 343.804 604.59 337.14C586.135 311.687 564.289 291.226 539.678 271.875C534.026 267.328 528.692 262.023 523.02 257.527C510.2 247.363 499.458 236.667 488.115 224.964C495.167 207.971 499.705 188.824 506.643 172.318Z"/><path fill="#00008B" d="M688.522 392.163C686.857 388.651 685.729 386.524 688.296 383.176C689.604 382.601 690.865 382.137 692.329 382.941C700.823 387.605 709.029 398.885 716.353 404.641C719.126 402.57 719.205 402.552 721.087 399.854L722.931 397.969C723.789 400.975 722.959 404.832 720.214 406.231C710.447 411.206 698.94 388.584 691.236 386.758C688.846 388.645 691.481 391.743 692.748 393.476C696.11 397.366 699.577 401.403 702.925 405.286C710.539 414.117 714.332 419.61 704.609 428.547C696.069 423.265 681.349 402.118 675.119 400.561L674.672 401.302C678.449 411.13 704.113 430.05 694.695 439.111L693.23 437.744C693.596 437.058 693.98 436.35 694.224 435.609C696.164 429.726 676.57 411.742 672.825 405.02C671.82 403.217 670.497 400.665 671.345 398.559C671.892 397.199 673.078 396.711 674.288 396.093C681.428 395.535 699.256 425.346 704.783 423.483C710.528 417.192 704.563 412.017 700.465 407.364C696.411 402.76 692.074 397.98 688.867 392.739L688.522 392.163Z"/><path fill="#8B4513" d="M633.214 740.525L634.647 741.13C637.353 742.352 640.173 743.307 643.064 743.982L644.856 744.614C646.728 745.322 648.666 746.093 650.553 746.735C651.22 746.972 652.726 747.458 653.292 747.73C656.881 749.296 660.12 750.729 663.609 752.495C673.417 757.443 682.654 763.449 691.155 770.408C698.881 776.827 706.647 784.75 714.695 790.509C738.731 807.712 764.674 823.347 790.03 838.524C801.662 845.486 813.499 852.245 825.667 858.169C828.542 859.568 833.865 862.389 836.686 863.46L837.066 863.576C837.526 863.088 839.593 856.253 841.109 853.437C847.412 856.206 848.093 854.411 852.661 860.635L842.431 857.357C841.053 866.157 839.164 875.273 836.184 883.69C834.312 886.087 832.73 886.91 829.618 887.035C813.578 887.674 797.23 886.663 781.175 887.049C783.67 898.253 785.932 909.508 787.958 920.806C789.111 926.914 791.113 936.532 791.619 942.588C789.182 939.878 789.081 933.701 788.014 930.393C787.841 929.855 785.843 926.947 785.44 926.356C783.725 918.621 779.305 895.61 778.931 887.912C762.939 883.161 746.753 875.467 730.339 871.175C724.235 869.579 717.47 866.378 711.246 864.422C685.809 856.426 660.246 848.795 635.286 839.377C628.45 836.797 611.121 830.692 605.339 826.677C603.254 825.757 601.633 824.932 599.62 823.859C598.053 819.342 596.459 821.665 593.406 817.67C595.044 818.41 596.128 819.298 597.515 818.993C607.593 806.866 621.608 779.621 627.093 764.495C629.494 757.875 631.212 747.651 633.214 740.525Z"/><path fill="#32CD32" d="M633.214 740.525L634.647 741.13C637.353 742.352 640.173 743.307 643.064 743.982L644.856 744.614C646.728 745.322 648.666 746.093 650.553 746.735C651.22 746.972 652.726 747.458 653.292 747.73C656.881 749.296 660.12 750.729 663.609 752.495C659.696 761.54 655.834 773.403 652.269 782.846C647.35 796.222 641.322 809.163 634.247 821.534C632.921 823.865 629.168 830.687 627.583 832.433L626.443 832.26C619.931 834.129 610.99 823.422 605.274 825.804L605.509 826.058L605.339 826.677C603.254 825.757 601.633 824.932 599.62 823.859C598.053 819.342 596.459 821.665 593.406 817.67C595.044 818.41 596.128 819.298 597.515 818.993C607.593 806.866 621.608 779.621 627.093 764.495C629.494 757.875 631.212 747.651 633.214 740.525Z"/><path fill="#32CD32" d="M653.292 747.73C656.881 749.296 660.12 750.729 663.609 752.495C659.696 761.54 655.834 773.403 652.269 782.846C647.35 796.222 641.322 809.163 634.247 821.534C632.921 823.865 629.168 830.687 627.583 832.433L626.443 832.26C624.601 831.238 620.035 829.446 617.94 828.562C624.485 816.583 632.377 805.866 637.185 792.778C640.166 784.666 643.671 776.693 646.355 768.449C648.614 761.509 650.416 754.438 653.292 747.73Z"/><path fill="#32CD32" d="M609.962 825.069C613.383 818.228 618.819 811.543 622.456 804.722C631.11 788.494 639.424 771.061 642.988 752.919C643.388 750.883 643.737 745.723 644.856 744.614C646.728 745.322 648.666 746.093 650.553 746.735C651.22 746.972 652.726 747.458 653.292 747.73C650.416 754.438 648.614 761.509 646.355 768.449C643.671 776.693 640.166 784.666 637.185 792.778C632.377 805.866 624.485 816.583 617.94 828.562L616.616 828.013C614.546 826.956 612.121 825.989 609.962 825.069Z"/><path fill="#020205" d="M650.553 746.735C651.22 746.972 652.726 747.458 653.292 747.73C650.416 754.438 648.614 761.509 646.355 768.449C643.671 776.693 640.166 784.666 637.185 792.778C632.377 805.866 624.485 816.583 617.94 828.562L616.616 828.013C618.858 823.192 626.428 811.253 629.094 806.443C633.103 799.213 651.607 751.579 650.553 746.735Z"/><path fill="#00008B" d="M633.214 740.525L634.647 741.13C632.414 761.101 621.571 784.652 611.584 802.183C608.131 808.244 603.099 814.848 599.928 820.744C602.659 821.992 605.47 823.316 608.221 824.498L609.962 825.069C612.121 825.989 614.546 826.956 616.616 828.013L617.94 828.562C620.035 829.446 624.601 831.238 626.443 832.26C619.931 834.129 610.99 823.422 605.274 825.804L605.509 826.058L605.339 826.677C603.254 825.757 601.633 824.932 599.62 823.859C598.053 819.342 596.459 821.665 593.406 817.67C595.044 818.41 596.128 819.298 597.515 818.993C607.593 806.866 621.608 779.621 627.093 764.495C629.494 757.875 631.212 747.651 633.214 740.525Z"/><path fill="#020205" d="M643.064 743.982L644.856 744.614C643.737 745.723 643.388 750.883 642.988 752.919C639.424 771.061 631.11 788.494 622.456 804.722C618.819 811.543 613.383 818.228 609.962 825.069L608.221 824.498C613.786 815.685 620.195 806.724 624.785 797.382C633.073 780.512 640.546 762.677 643.064 743.982Z"/><path fill="#00008B" d="M605.339 826.677L605.509 826.058L605.274 825.804C610.99 823.422 619.931 834.129 626.443 832.26L627.583 832.433C630.166 833.963 639.84 837.245 643.171 838.439C660.367 844.565 677.714 850.257 695.196 855.509C722.699 864.027 750.193 874.302 777.336 883.508C777.323 883.503 827.753 883.954 830.607 883.818C832.946 882.43 833.327 880.548 834.245 877.959C835.183 874.521 837.23 867.554 837.45 864.316L837.066 863.576C837.526 863.088 839.593 856.253 841.109 853.437C847.412 856.206 848.093 854.411 852.661 860.635L842.431 857.357C841.053 866.157 839.164 875.273 836.184 883.69C834.312 886.087 832.73 886.91 829.618 887.035C813.578 887.674 797.23 886.663 781.175 887.049C783.67 898.253 785.932 909.508 787.958 920.806C789.111 926.914 791.113 936.532 791.619 942.588C789.182 939.878 789.081 933.701 788.014 930.393C787.841 929.855 785.843 926.947 785.44 926.356C783.725 918.621 779.305 895.61 778.931 887.912C762.939 883.161 746.753 875.467 730.339 871.175C724.235 869.579 717.47 866.378 711.246 864.422C685.809 856.426 660.246 848.795 635.286 839.377C628.45 836.797 611.121 830.692 605.339 826.677Z"/><path fill="#00008B" d="M841.109 853.437C847.412 856.206 848.093 854.411 852.661 860.635L842.431 857.357C839.871 858.921 840.235 859.595 839.591 862.533L839.517 861.768L838.862 863.867C838.074 864.231 838.263 864.255 837.45 864.316L837.066 863.576C837.526 863.088 839.593 856.253 841.109 853.437Z"/><path fill="#8B4513" d="M142.911 479.582L143.291 478.274C143.785 478.054 158.971 477.106 161.426 476.716C174.487 474.639 186.72 471.12 199.192 466.776C203.194 478.06 208.004 489.049 211.957 500.205C217.675 516.416 221.663 533.186 223.857 550.235C226.166 567.418 226.414 584.322 226.786 601.611C226.971 610.234 226.713 619.083 229.729 627.293C239.668 631.836 249.478 638.493 254.03 648.986C255.515 652.408 255.816 658.592 254.08 661.973C254.511 663.826 254.399 663.267 255.892 664.842C258.676 667.59 260.657 669.834 260.413 673.904L260.828 674.031C265.096 675.298 277.853 676.401 280.214 680.163C282.809 684.297 274.851 691.638 271.16 692.442C269.964 692.82 268.513 692.807 267.307 693.021C266.831 694.712 266.941 697.062 266.924 698.873C262.355 706.108 259.185 705.79 251.45 703.844C245.736 702.276 222.405 698.056 220.027 695.78C210.501 686.66 207.815 654.652 202.094 641.523C195.658 626.753 189.271 618.01 182.159 605.149C171.139 585.218 160.374 565.842 153.07 544.499C145.393 522.067 143.97 500.641 139.799 477.767C140.892 478.513 141.694 479.235 142.911 479.582Z"/><path fill="#00008B" d="M139.799 477.767C140.892 478.513 141.694 479.235 142.911 479.582L143.047 480.057C145.624 489.29 146.361 499.672 147.958 509.189C149.632 519.412 151.599 529.951 154.937 539.756C163.071 563.648 175.565 587.62 188.492 609.19C200.496 629.22 208.359 644.455 212.7 667.681C214.044 674.87 217.143 687.34 220.79 693.38C229.189 696.194 241.4 698.166 251.514 701.283L251.92 702.248C255.279 703.444 257.374 703.207 260.248 704.093C257.776 704.637 254.687 703.437 251.752 703.197L251.45 703.844C245.736 702.276 222.405 698.056 220.027 695.78C210.501 686.66 207.815 654.652 202.094 641.523C195.658 626.753 189.271 618.01 182.159 605.149C171.139 585.218 160.374 565.842 153.07 544.499C145.393 522.067 143.97 500.641 139.799 477.767Z"/><path fill="#8B4513" d="M239.11 669.318C243.488 671.504 252.572 675.985 257.415 676.894L258.432 676.785C259.158 675.273 259.352 675.151 260.413 673.904L260.828 674.031C265.096 675.298 277.853 676.401 280.214 680.163C282.809 684.297 274.851 691.638 271.16 692.442C269.964 692.82 268.513 692.807 267.307 693.021C266.831 694.712 266.941 697.062 266.924 698.873C262.355 706.108 259.185 705.79 251.45 703.844L251.752 703.197C254.687 703.437 257.776 704.637 260.248 704.093C257.374 703.207 255.279 703.444 251.92 702.248L251.514 701.283C258.12 702.671 262.899 703.644 264.929 695.094C266.228 689.626 250.681 687.457 247.184 686.325C242.346 684.757 232.824 683.399 233.614 676.238C233.867 673.94 235.461 669.595 238.399 670.439L239.11 669.318Z"/><path fill="#00008B" d="M251.514 701.283C258.12 702.671 262.899 703.644 264.929 695.094C266.228 689.626 250.681 687.457 247.184 686.325C242.346 684.757 232.824 683.399 233.614 676.238C233.867 673.94 235.461 669.595 238.399 670.439C237.811 673.336 237.275 676.147 236.481 678.997C249.377 685.606 258.756 685.216 271.156 690.006C273.448 687.79 275.836 685.945 276.452 682.813C275.569 679.314 272.711 679.331 269.512 678.718C265.838 678.014 262.109 677.483 258.432 676.785C259.158 675.273 259.352 675.151 260.413 673.904L260.828 674.031C265.096 675.298 277.853 676.401 280.214 680.163C282.809 684.297 274.851 691.638 271.16 692.442C269.964 692.82 268.513 692.807 267.307 693.021C266.831 694.712 266.941 697.062 266.924 698.873C262.355 706.108 259.185 705.79 251.45 703.844L251.752 703.197C254.687 703.437 257.776 704.637 260.248 704.093C257.374 703.207 255.279 703.444 251.92 702.248L251.514 701.283Z"/><path fill="#00008B" d="M239.11 669.318C236.626 667.133 232.863 661.358 236.465 658.701C239.493 658.398 248.03 663.038 251.635 664.574C252.616 663.08 252.547 663.058 254.08 661.973C254.511 663.826 254.399 663.267 255.892 664.842C258.676 667.59 260.657 669.834 260.413 673.904C259.352 675.151 259.158 675.273 258.432 676.785L257.415 676.894C252.572 675.985 243.488 671.504 239.11 669.318Z"/><path fill="#00008B" d="M251.635 664.574C252.616 663.08 252.547 663.058 254.08 661.973C254.511 663.826 254.399 663.267 255.892 664.842C258.676 667.59 260.657 669.834 260.413 673.904C259.352 675.151 259.158 675.273 258.432 676.785L257.415 676.894C256.748 675.776 256.109 674.642 255.496 673.494C256.108 672.293 256.049 672.072 256.368 670.708C255.448 667.317 253.212 668.951 250.397 666.86L251.303 666.288L251.635 664.574Z"/><path fill="#8B4513" d="M237.691 662.367C241.818 663.475 246.356 665.328 250.397 666.86C253.212 668.951 255.448 667.317 256.368 670.708C256.049 672.072 256.108 672.293 255.496 673.494C249.162 668.884 244.487 669.397 237.691 662.367Z"/><path fill="#32CD32" d="M935.867 762.211C947.91 767.102 961.129 782.897 969.236 792.711C973.486 797.856 983.617 806.413 986.025 811.804C989.444 814.243 992.92 816.601 996.45 818.877C997.977 818.679 999.934 818.22 1001.17 819.496C1004.04 822.482 1006.75 827.461 1006.73 831.69C1006.58 836.862 1001.24 841.846 998.068 845.508C989.657 855.226 978.047 861.286 967.589 868.45C962.322 872.057 958.403 875.161 951.715 874.975C941.604 874.695 935.802 865.284 933.309 856.608C935.044 858.524 936.027 859.822 938.292 861.148C934.62 852.045 932.495 841.479 927.49 833.093C924.814 828.61 917.258 825.521 913.711 821.947C905.494 813.668 899.297 802.154 893.5 792.101C907.208 789.463 923.848 781.497 933.456 771.111C934.618 769.453 934.773 768.05 935.241 766.086L936.043 765.832L938.439 767.327C937.173 764.897 936.468 765.427 935.867 762.211Z"/><path fill="#00008B" d="M996.45 818.877C997.977 818.679 999.934 818.22 1001.17 819.496C1004.04 822.482 1006.75 827.461 1006.73 831.69C1006.58 836.862 1001.24 841.846 998.068 845.508C989.657 855.226 978.047 861.286 967.589 868.45C962.322 872.057 958.403 875.161 951.715 874.975C941.604 874.695 935.802 865.284 933.309 856.608C935.044 858.524 936.027 859.822 938.292 861.148C940.616 864.752 940.963 866.825 944.875 869.242C954.776 875.359 958.637 870.033 965.821 865.5C981.385 855.679 993.932 848.328 1003.66 832.24C1002.44 826.452 1001 822.796 996.45 818.877Z"/><path fill="#00008B" d="M935.867 762.211C947.91 767.102 961.129 782.897 969.236 792.711C973.486 797.856 983.617 806.413 986.025 811.804C972.564 803.322 964.311 790.31 953.393 779.278C949.679 775.526 943.245 771.55 939.12 767.93L938.439 767.327C937.173 764.897 936.468 765.427 935.867 762.211Z"/><path fill="#8B4513" d="M364.681 584.915C367.077 580.538 371.532 572.024 374.623 568.321C375.09 568.645 376.285 569.525 376.717 569.748C378.861 573.034 381.935 580.153 383.725 583.921C388.038 593.093 392.459 602.213 396.986 611.281C411.842 640.396 431.495 670.087 450.415 696.795C451.839 698.805 460.028 710.371 461.499 711.691C461.971 712.302 463.842 714.521 463.483 715.29C459.996 722.763 457.033 730.043 454.605 737.934C447.06 729.274 438.624 715.261 432.318 705.554C407.435 667.582 385.117 627.988 365.514 587.04L364.681 584.915Z"/><path fill="#00008B" d="M364.681 584.915C367.077 580.538 371.532 572.024 374.623 568.321C375.09 568.645 376.285 569.525 376.717 569.748C372.789 574.417 369 581.872 365.514 587.04L364.681 584.915Z"/><path fill="#8B4513" d="M603.446 732.634C613.109 735.432 623.445 737.964 633.214 740.525C631.212 747.651 629.494 757.875 627.093 764.495C621.608 779.621 607.593 806.866 597.515 818.993C596.128 819.298 595.044 818.41 593.406 817.67C581.988 810.953 571.456 805.272 559.846 798.131C580.528 783.099 596.831 757.108 603.446 732.634Z"/><path fill="#8B4513" d="M319.603 90.2886C324.543 89.7237 331.392 88.9156 336.291 89.1358C352.554 89.8668 371.098 95.4602 385.631 102.494C396.577 107.792 408.247 114.907 419.43 119.269C440.688 127.56 461.999 134.813 483.13 143.503C483.841 143.733 485.927 144.353 486.489 144.632C489.695 146.398 494.178 148.383 497.643 149.739C500.513 151.014 506.249 153.293 508.682 154.686C503.53 171.721 496.62 189.297 490.849 206.242C486.943 217.711 483.368 229.58 479.346 240.897C478.196 241.479 478.791 241.315 477.57 241.423C473.976 239.975 459.489 236.579 455.366 235.823C454.572 235.144 454.363 234.897 453.759 234.08L452.644 234.382C449.812 234.687 444.337 232.906 441.391 232.08C417.495 225.38 389.607 214.485 372.082 196.43C345.258 168.796 329.293 126.942 319.603 90.2886Z"/><path fill="#32CD32" d="M483.13 143.503C483.841 143.733 485.927 144.353 486.489 144.632C489.695 146.398 494.178 148.383 497.643 149.739C500.513 151.014 506.249 153.293 508.682 154.686C503.53 171.721 496.62 189.297 490.849 206.242C486.943 217.711 483.368 229.58 479.346 240.897C478.196 241.479 478.791 241.315 477.57 241.423C473.976 239.975 459.489 236.579 455.366 235.823C454.572 235.144 454.363 234.897 453.759 234.08L452.644 234.382C455 226.16 460.32 212.061 463.183 203.547L483.13 143.503Z"/><path fill="#00008B" d="M483.13 143.503C483.841 143.733 485.927 144.353 486.489 144.632C484.898 146.54 480.595 160.569 479.552 163.728L463.726 210.736C461.964 216.109 457.471 231.434 455.366 235.823C454.572 235.144 454.363 234.897 453.759 234.08L452.644 234.382C455 226.16 460.32 212.061 463.183 203.547L483.13 143.503Z"/><path fill="#8B4513" d="M765.961 589.309C776.001 595.542 785.215 599.722 795.996 606.834C797.056 607.502 797.442 607.558 798.092 608.486L800.098 609.706C802.018 611.2 805.789 613.993 807.475 615.558C808.238 616.176 809.258 617.069 810.059 617.573C813.266 618.873 816.472 621.999 819.051 624.351C835.918 640.783 850.889 656.851 863.97 676.656C883.245 705.841 903.766 734.268 927.464 760.063C929.201 761.953 931.003 763.9 932.126 766.235C930.57 771.104 923.29 775.837 919.082 778.429C910.292 783.843 901.478 787.632 891.183 788.697C888.262 783.184 883.156 776.616 879.247 771.619C852.652 737.633 815.402 724.979 780.376 702.31C772.593 697.274 766.332 692.184 759.239 686.156C756.698 684.999 751.206 681.156 750.411 678.473L751.392 677.747L751.44 675.964L749.495 676.488C746.474 675.95 741.613 670.155 739.695 667.697C738.807 666.369 739.349 666.954 737.726 666.218C731.92 660.869 724.814 653.279 720.372 646.867C738.891 643.492 754.031 632.065 762.067 614.892C766.375 605.683 766.223 599.166 765.961 589.309Z"/><path fill="#8B4513" d="M765.961 589.309C776.001 595.542 785.215 599.722 795.996 606.834C797.056 607.502 797.442 607.558 798.092 608.486L800.098 609.706C802.018 611.2 805.789 613.993 807.475 615.558C802.983 627.565 794.881 641.761 787.028 652.108C782.91 657.167 779.355 661.362 773.888 665.044C766.474 669.415 759.808 673.662 751.44 675.964L749.495 676.488C746.474 675.95 741.613 670.155 739.695 667.697C738.807 666.369 739.349 666.954 737.726 666.218C731.92 660.869 724.814 653.279 720.372 646.867C738.891 643.492 754.031 632.065 762.067 614.892C766.375 605.683 766.223 599.166 765.961 589.309Z"/><path fill="#32CD32" d="M739.695 667.697C741.365 667.279 743.015 666.784 744.639 666.213C762.872 659.965 777.212 646.192 787.323 629.969C791.803 622.78 794.431 615.915 798.092 608.486L800.098 609.706C802.018 611.2 805.789 613.993 807.475 615.558C802.983 627.565 794.881 641.761 787.028 652.108C782.91 657.167 779.355 661.362 773.888 665.044C766.474 669.415 759.808 673.662 751.44 675.964L749.495 676.488C746.474 675.95 741.613 670.155 739.695 667.697Z"/><path fill="#00008B" d="M795.996 606.834C797.056 607.502 797.442 607.558 798.092 608.486C794.431 615.915 791.803 622.78 787.323 629.969C777.212 646.192 762.872 659.965 744.639 666.213C743.015 666.784 741.365 667.279 739.695 667.697C738.807 666.369 739.349 666.954 737.726 666.218C766.942 658.867 785.747 633.649 795.996 606.834Z"/><path fill="#32CD32" d="M807.475 615.558C808.238 616.176 809.258 617.069 810.059 617.573C813.266 618.873 816.472 621.999 819.051 624.351C806.473 648.638 790.588 676.229 763.216 684.994C761.902 685.42 760.576 685.807 759.239 686.156C756.698 684.999 751.206 681.156 750.411 678.473L751.392 677.747L751.44 675.964C759.808 673.662 766.474 669.415 773.888 665.044C779.355 661.362 782.91 657.167 787.028 652.108C794.881 641.761 802.983 627.565 807.475 615.558Z"/><path fill="#111158" d="M807.475 615.558C808.238 616.176 809.258 617.069 810.059 617.573C803.95 630.395 798.348 641.043 789.584 652.405L787.028 652.108C794.881 641.761 802.983 627.565 807.475 615.558Z"/><path fill="#111158" d="M773.888 665.044L775.212 666.597C769.429 670.694 758.378 676.665 751.392 677.747L751.44 675.964C759.808 673.662 766.474 669.415 773.888 665.044Z"/><path fill="#020205" d="M787.028 652.108L789.584 652.405C785.171 657.738 780.891 662.535 775.212 666.597L773.888 665.044C779.355 661.362 782.91 657.167 787.028 652.108Z"/><path fill="#8B4513" d="M82.4873 285.862C91.41 292.982 99.0753 301.685 106.799 310.062C125.228 330.05 143.937 350.64 168.307 363.49C170.691 364.747 173.191 365.721 175.237 367.474L174.993 367.967C170.801 368.054 157.906 363.338 153.952 361.629L152.121 363.385C169.883 373.683 182.859 370.767 199.225 378.972C200.943 384.2 215.446 425.517 215.395 427.965C179.139 451.021 148.229 452.181 107.047 449.9C106.128 432.623 104.913 410.744 101.636 393.723C100.305 386.807 93.0593 370.732 90.533 363.179C82.3044 338.577 80.4727 311.612 82.4873 285.862Z"/><path fill="#111158" d="M135.421 349.839C141.882 354.469 146.787 357.997 153.952 361.629L152.121 363.385C145.614 359.616 140.548 355.27 135.421 349.839Z"/><path fill="#8B4513" d="M548.96 648.519C551.126 648.855 558.459 669.497 559.395 672.105C561.709 677.753 562.42 684.869 564.691 690.466C572.892 710.677 579.56 724.193 597.848 736.636C589.21 757.866 579.143 781.235 558.027 793.752C554.883 795.615 533.413 784.96 529.12 783.029C509.884 774.081 504.556 762.51 491.778 746.691C483.177 736.042 475.463 727.046 467.941 715.475C485.899 687.735 518.395 660.894 548.96 648.519Z"/><path fill="#8B4513" d="M712.36 547.472C713.403 548.425 720.697 556.982 722.275 558.695C735.654 573.224 745.981 584.984 762.628 595.971C762.083 617.317 749.139 631.402 730.674 640.423C718.582 646.33 709.686 641.376 698.1 637.008C675.128 628.12 658.22 619.518 639.644 603.204C647.342 598.682 651.765 594.706 658.632 589.644C677.379 575.826 693.027 560.545 712.36 547.472Z"/><path fill="#8B4513" d="M506.16 532.175C508.253 533.083 517.326 539.869 518.131 541.511C535.955 577.857 560.532 609.09 583.371 642.365C576.607 639.818 574.358 639.775 567.393 640.295C548.877 642.769 537.067 649.039 521.512 658.338C508.222 623.183 505.599 569.571 506.16 532.175Z"/><path fill="#32CD32" d="M107.351 453.703C152.039 454.193 176.66 456.122 216.605 430.483C218.699 437.127 221.436 445.458 224.225 451.848C180.327 473.877 157.649 478.035 108.524 470.966C108.204 465.207 107.813 459.452 107.351 453.703Z"/><path fill="#8B4513" d="M570.008 643.699C578.345 642.93 581.829 643.683 586.597 650.6C585.303 665.21 577.467 675.238 569.415 686.901L568.825 687.664C566.717 686.564 566.072 679.835 565.194 677.455C561.468 667.354 558.501 656.231 553.764 646.57C559.101 645.312 564.551 644.24 570.008 643.699Z"/><path fill="#8B4513" d="M466.348 719.237C467.092 719.685 466.889 719.437 467.303 720.124C472.383 728.546 478.948 736.423 484.917 744.324L475.621 745.21C469.74 746.332 463.198 744.057 457.819 741.95C460.201 733.334 461.943 726.977 466.348 719.237Z"/><path fill="#8B4513" d="M732.623 535.384C733.453 535.314 732.998 535.251 733.938 535.797C734.757 540.003 727.206 551.989 725.372 556.944L721.706 552.849C719.087 549.874 717.929 548.549 715.838 545.214C721.814 540.97 726.179 538.653 732.623 535.384Z"/><path fill="#32CD32" d="M842.431 857.357L852.661 860.635C865.826 866.306 871.665 869.271 881.595 880.652C883.374 882.691 888.571 889.067 890.255 890.729C892.254 891.027 893.444 891.826 894.627 893.559C895.517 894.862 895.713 896.595 895.374 898.112C894.089 903.852 868.733 926.073 862.84 930.858C858.826 934.117 853.898 936.823 850.293 940.495C846.366 944.496 846.148 951.404 843.361 956.141C841.551 959.219 838.441 961.893 835.917 964.416C825.812 974.516 817.603 981.414 805.173 988.622C797.214 993.237 788.983 996.298 780.688 1000.11C776.704 1001.94 772.985 1004.41 768.709 1005.61C766.906 1006.11 764.777 1005.94 762.983 1005.48C761.437 1005.08 755.748 1001.35 754.966 1001.54C760.006 1018.22 812.99 985.054 820.865 980.119C827.956 975.676 835.439 966.408 841.641 960.581C845.591 956.747 846.154 951.185 848.23 946.079C848.737 948.093 845.937 955.888 844.825 957.432C839.076 964.428 828.002 976.898 820.471 981.473C804.633 991.094 786.587 1001.34 768.884 1006.5C762.035 1008.5 753.745 1005.85 753.123 998.097C752.594 991.482 757.859 984.346 761.679 979.173C769.099 969.724 782.242 959.551 788.372 949.631C788.417 940.904 786.964 934.84 785.44 926.356C785.843 926.947 787.841 929.855 788.014 930.393C789.081 933.701 789.182 939.878 791.619 942.588C791.113 936.532 789.111 926.914 787.958 920.806C785.932 909.508 783.67 898.253 781.175 887.049C797.23 886.663 813.578 887.674 829.618 887.035C832.73 886.91 834.312 886.087 836.184 883.69C839.164 875.273 841.053 866.157 842.431 857.357Z"/><path fill="#00008B" d="M890.255 890.729C892.254 891.027 893.444 891.826 894.627 893.559C895.517 894.862 895.713 896.595 895.374 898.112C894.089 903.852 868.733 926.073 862.84 930.858C858.826 934.117 853.898 936.823 850.293 940.495C846.366 944.496 846.148 951.404 843.361 956.141C841.551 959.219 838.441 961.893 835.917 964.416C825.812 974.516 817.603 981.414 805.173 988.622C797.214 993.237 788.983 996.298 780.688 1000.11C776.704 1001.94 772.985 1004.41 768.709 1005.61C766.906 1006.11 764.777 1005.94 762.983 1005.48C761.437 1005.08 755.748 1001.35 754.966 1001.54C760.006 1018.22 812.99 985.054 820.865 980.119C827.956 975.676 835.439 966.408 841.641 960.581C845.591 956.747 846.154 951.185 848.23 946.079C848.737 948.093 845.937 955.888 844.825 957.432C839.076 964.428 828.002 976.898 820.471 981.473C804.633 991.094 786.587 1001.34 768.884 1006.5C762.035 1008.5 753.745 1005.85 753.123 998.097C752.594 991.482 757.859 984.346 761.679 979.173C769.099 969.724 782.242 959.551 788.372 949.631C788.417 940.904 786.964 934.84 785.44 926.356C785.843 926.947 787.841 929.855 788.014 930.393C789.081 933.701 789.182 939.878 791.619 942.588C792.164 944.085 792.302 947.745 792.435 949.499C785.442 962.309 756.045 983.773 756.219 996.411C756.242 998.554 757.178 1000.58 758.791 1001.99C762.86 1005.59 769.876 1003.41 774.141 1001.68C799.681 991.283 822.433 979.246 840.337 957.679C844.118 953.124 844.645 943.654 848.766 940.348C865.979 926.539 880.634 914.526 894.937 897.547C893.537 895.232 891.83 892.944 890.255 890.729Z"/><path fill="#FFFFFE" d="M492.058 256.982C499.101 263.356 505.33 269.43 512.681 275.594C528.936 289.222 548.344 303.758 563.297 318.585C576.739 331.915 593.823 355.533 603.973 372.048C599.829 368.645 595.581 365.37 591.235 362.228C580.279 353.733 571.119 349.101 558.894 343.021C550.285 318.699 538.731 314.053 516.049 303.818C511.12 301.594 505.77 299.591 501.33 296.484C497.213 293.603 475.208 266.763 471.019 261.096C480.881 263.46 484.042 263.397 492.058 256.982Z"/></svg>